{
    "asset" : {
        "generator" : "Khronos glTF Blender I/O v3.3.27",
        "version" : "2.0"
    },
    "scene" : 0,
    "scenes" : [
        {
            "name" : "Scene",
            "nodes" : [
                0,
                1
            ]
        }
    ],
    "nodes" : [
        {
            "mesh" : 0,
            "name" : "Torus"
        },
        {
            "mesh" : 1,
            "name" : "Torus.001"
        }
    ],
    "materials" : [
        {
            "doubleSided" : true,
            "name" : "Dough",
            "pbrMetallicRoughness" : {
                "baseColorFactor" : [
                    1,
                    0.2071762979030609,
                    0.03025333397090435,
                    1
                ],
                "metallicFactor" : 0,
                "roughnessFactor" : 0.5
            }
        },
        {
            "doubleSided" : true,
            "name" : "Ice",
            "pbrMetallicRoughness" : {
                "baseColorFactor" : [
                    0.1421913057565689,
                    0.01741063967347145,
                    0,
                    1
                ],
                "metallicFactor" : 0,
                "roughnessFactor" : 0.5
            }
        }
    ],
    "meshes" : [
        {
            "name" : "Torus",
            "primitives" : [
                {
                    "attributes" : {
                        "POSITION" : 0,
                        "NORMAL" : 1,
                        "TEXCOORD_0" : 2
                    },
                    "indices" : 3,
                    "material" : 0
                }
            ]
        },
        {
            "name" : "Torus.001",
            "primitives" : [
                {
                    "attributes" : {
                        "POSITION" : 4,
                        "NORMAL" : 5,
                        "TEXCOORD_0" : 6
                    },
                    "indices" : 7,
                    "material" : 1
                }
            ]
        }
    ],
    "accessors" : [
        {
            "bufferView" : 0,
            "componentType" : 5126,
            "count" : 901,
            "max" : [
                0.7699999809265137,
                0.25,
                0.7699999809265137
            ],
            "min" : [
                -0.7699999809265137,
                -0.25,
                -0.7699999809265137
            ],
            "type" : "VEC3"
        },
        {
            "bufferView" : 1,
            "componentType" : 5126,
            "count" : 901,
            "type" : "VEC3"
        },
        {
            "bufferView" : 2,
            "componentType" : 5126,
            "count" : 901,
            "type" : "VEC2"
        },
        {
            "bufferView" : 3,
            "componentType" : 5123,
            "count" : 4992,
            "type" : "SCALAR"
        },
        {
            "bufferView" : 4,
            "componentType" : 5126,
            "count" : 742,
            "max" : [
                0.7675992846488953,
                0.2699994444847107,
                0.7675992846488953
            ],
            "min" : [
                -0.7675992846488953,
                0.09567085653543472,
                -0.7675992846488953
            ],
            "type" : "VEC3"
        },
        {
            "bufferView" : 5,
            "componentType" : 5126,
            "count" : 742,
            "type" : "VEC3"
        },
        {
            "bufferView" : 6,
            "componentType" : 5126,
            "count" : 742,
            "type" : "VEC2"
        },
        {
            "bufferView" : 7,
            "componentType" : 5123,
            "count" : 4368,
            "type" : "SCALAR"
        }
    ],
    "bufferViews" : [
        {
            "buffer" : 0,
            "byteLength" : 10812,
            "byteOffset" : 0,
            "target" : 34962
        },
        {
            "buffer" : 0,
            "byteLength" : 10812,
            "byteOffset" : 10812,
            "target" : 34962
        },
        {
            "buffer" : 0,
            "byteLength" : 7208,
            "byteOffset" : 21624,
            "target" : 34962
        },
        {
            "buffer" : 0,
            "byteLength" : 9984,
            "byteOffset" : 28832,
            "target" : 34963
        },
        {
            "buffer" : 0,
            "byteLength" : 8904,
            "byteOffset" : 38816,
            "target" : 34962
        },
        {
            "buffer" : 0,
            "byteLength" : 8904,
            "byteOffset" : 47720,
            "target" : 34962
        },
        {
            "buffer" : 0,
            "byteLength" : 5936,
            "byteOffset" : 56624,
            "target" : 34962
        },
        {
            "buffer" : 0,
            "byteLength" : 8736,
            "byteOffset" : 62560,
            "target" : 34963
        }
    ],
    "buffers" : [
        {
            "byteLength" : 71296,
            "uri" : "data:application/octet-stream;base64,"
        }
    ]
}
