{
    "asset" : {
        "generator" : "Khronos glTF Blender I/O v3.3.27",
        "version" : "2.0"
    },
    "extensionsUsed" : [
        "KHR_materials_transmission",
        "KHR_materials_ior"
    ],
    "scene" : 0,
    "scenes" : [
        {
            "name" : "Scene",
            "nodes" : [
                0,
                1,
                2
            ]
        }
    ],
    "nodes" : [
        {
            "name" : "Empty",
            "rotation" : [
                0.7071068286895752,
                0,
                0,
                0.7071067094802856
            ]
        },
        {
            "mesh" : 0,
            "name" : "Bicchiere",
            "scale" : [
                0.07996769994497299,
                0.07996769994497299,
                0.07996769994497299
            ]
        },
        {
            "mesh" : 1,
            "name" : "Acqua",
            "scale" : [
                0.07996769994497299,
                0.07996769994497299,
                0.07996769994497299
            ]
        }
    ],
    "materials" : [
        {
            "doubleSided" : true,
            "extensions" : {
                "KHR_materials_transmission" : {
                    "transmissionFactor" : 1
                },
                "KHR_materials_ior" : {
                    "ior" : 1.4500000476837158
                }
            },
            "name" : "Glass",
            "pbrMetallicRoughness" : {
                "metallicFactor" : 0,
                "metallicRoughnessTexture" : {
                    "index" : 0
                }
            }
        },
        {
            "name" : "Outline",
            "pbrMetallicRoughness" : {}
        },
        {
            "doubleSided" : true,
            "name" : "Water",
            "pbrMetallicRoughness" : {
                "baseColorFactor" : [
                    0.7991024851799011,
                    0.752941906452179,
                    0.1441287100315094,
                    1
                ],
                "metallicFactor" : 0,
                "roughnessFactor" : 0
            }
        }
    ],
    "meshes" : [
        {
            "name" : "Circle.002",
            "primitives" : [
                {
                    "attributes" : {
                        "POSITION" : 0,
                        "NORMAL" : 1,
                        "TEXCOORD_0" : 2
                    },
                    "indices" : 3,
                    "material" : 0
                },
                {
                    "attributes" : {
                        "POSITION" : 4,
                        "NORMAL" : 5,
                        "TEXCOORD_0" : 6
                    },
                    "indices" : 7,
                    "material" : 1
                }
            ]
        },
        {
            "name" : "Circle.001",
            "primitives" : [
                {
                    "attributes" : {
                        "POSITION" : 8,
                        "NORMAL" : 9,
                        "TEXCOORD_0" : 10
                    },
                    "indices" : 11,
                    "material" : 2
                }
            ]
        }
    ],
    "textures" : [
        {
            "sampler" : 0,
            "source" : 0
        }
    ],
    "images" : [
        {
            "bufferView" : 4,
            "mimeType" : "image/png",
            "name" : "Color"
        }
    ],
    "accessors" : [
        {
            "bufferView" : 0,
            "componentType" : 5126,
            "count" : 12925,
            "max" : [
                1.4988093376159668,
                3.4026989936828613,
                1.4988092184066772
            ],
            "min" : [
                -1.4988086223602295,
                -3.8162543773651123,
                -1.4988092184066772
            ],
            "type" : "VEC3"
        },
        {
            "bufferView" : 1,
            "componentType" : 5126,
            "count" : 12925,
            "type" : "VEC3"
        },
        {
            "bufferView" : 2,
            "componentType" : 5126,
            "count" : 12925,
            "type" : "VEC2"
        },
        {
            "bufferView" : 3,
            "componentType" : 5123,
            "count" : 70656,
            "type" : "SCALAR"
        },
        {
            "bufferView" : 5,
            "componentType" : 5126,
            "count" : 12925,
            "max" : [
                1.548616886138916,
                3.452047348022461,
                1.5486170053482056
            ],
            "min" : [
                -1.5486162900924683,
                -3.866236686706543,
                -1.5486171245574951
            ],
            "type" : "VEC3"
        },
        {
            "bufferView" : 6,
            "componentType" : 5126,
            "count" : 12925,
            "type" : "VEC3"
        },
        {
            "bufferView" : 7,
            "componentType" : 5126,
            "count" : 12925,
            "type" : "VEC2"
        },
        {
            "bufferView" : 8,
            "componentType" : 5123,
            "count" : 70656,
            "type" : "SCALAR"
        },
        {
            "bufferView" : 9,
            "componentType" : 5126,
            "count" : 4617,
            "max" : [
                1.2083431482315063,
                3.2886476516723633,
                1.2083431482315063
            ],
            "min" : [
                -1.2083431482315063,
                -0.6906044483184814,
                -1.2083431482315063
            ],
            "type" : "VEC3"
        },
        {
            "bufferView" : 10,
            "componentType" : 5126,
            "count" : 4617,
            "type" : "VEC3"
        },
        {
            "bufferView" : 11,
            "componentType" : 5126,
            "count" : 4617,
            "type" : "VEC2"
        },
        {
            "bufferView" : 12,
            "componentType" : 5123,
            "count" : 26880,
            "type" : "SCALAR"
        }
    ],
    "bufferViews" : [
        {
            "buffer" : 0,
            "byteLength" : 155100,
            "byteOffset" : 0,
            "target" : 34962
        },
        {
            "buffer" : 0,
            "byteLength" : 155100,
            "byteOffset" : 155100,
            "target" : 34962
        },
        {
            "buffer" : 0,
            "byteLength" : 103400,
            "byteOffset" : 310200,
            "target" : 34962
        },
        {
            "buffer" : 0,
            "byteLength" : 141312,
            "byteOffset" : 413600,
            "target" : 34963
        },
        {
            "buffer" : 0,
            "byteLength" : 483452,
            "byteOffset" : 554912
        },
        {
            "buffer" : 0,
            "byteLength" : 155100,
            "byteOffset" : 1038364,
            "target" : 34962
        },
        {
            "buffer" : 0,
            "byteLength" : 155100,
            "byteOffset" : 1193464,
            "target" : 34962
        },
        {
            "buffer" : 0,
            "byteLength" : 103400,
            "byteOffset" : 1348564,
            "target" : 34962
        },
        {
            "buffer" : 0,
            "byteLength" : 141312,
            "byteOffset" : 1451964,
            "target" : 34963
        },
        {
            "buffer" : 0,
            "byteLength" : 55404,
            "byteOffset" : 1593276,
            "target" : 34962
        },
        {
            "buffer" : 0,
            "byteLength" : 55404,
            "byteOffset" : 1648680,
            "target" : 34962
        },
        {
            "buffer" : 0,
            "byteLength" : 36936,
            "byteOffset" : 1704084,
            "target" : 34962
        },
        {
            "buffer" : 0,
            "byteLength" : 53760,
            "byteOffset" : 1741020,
            "target" : 34963
        }
    ],
    "samplers" : [
        {
            "magFilter" : 9729,
            "minFilter" : 9987
        }
    ],
    "buffers" : [
        {
            "byteLength" : 1794780,
            "uri" : "data:application/octet-stream;base64,"
        }
    ]
}
