{
    "asset" : {
        "generator" : "Khronos glTF Blender I/O v3.3.27",
        "version" : "2.0"
    },
    "extensionsUsed" : [
        "KHR_materials_transmission",
        "KHR_materials_specular",
        "KHR_materials_ior"
    ],
    "scene" : 0,
    "scenes" : [
        {
            "name" : "Scene",
            "nodes" : [
                6,
                7
            ]
        }
    ],
    "nodes" : [
        {
            "mesh" : 0,
            "name" : "Plane"
        },
        {
            "mesh" : 1,
            "name" : "bandiera"
        },
        {
            "children" : [
                0,
                1
            ],
            "mesh" : 2,
            "name" : "Bandiera",
            "scale" : [
                14.537968635559082,
                14.537968635559082,
                14.537968635559082
            ],
            "translation" : [
                0,
                2.0636165142059326,
                0
            ]
        },
        {
            "mesh" : 3,
            "name" : "bandiera.001",
            "rotation" : [
                0.7457233667373657,
                0,
                0,
                0.6662557721138
            ],
            "scale" : [
                1.1626206636428833,
                0.9860774874687195,
                0.9860774874687195
            ],
            "translation" : [
                0,
                2.0636165142059326,
                1.3203200101852417
            ]
        },
        {
            "mesh" : 4,
            "name" : "gluck",
            "rotation" : [
                0.6399387717247009,
                0.1590791940689087,
                0.18136152625083923,
                0.7295753955841064
            ],
            "scale" : [
                2.164450168609619,
                1.9907712936401367,
                1.9907714128494263
            ],
            "translation" : [
                0,
                2.0083017349243164,
                -1.3009964227676392
            ]
        },
        {
            "mesh" : 5,
            "name" : "Water",
            "scale" : [
                1.3346067667007446,
                1.3346067667007446,
                1.3346067667007446
            ],
            "translation" : [
                0,
                3.109896183013916,
                0
            ]
        },
        {
            "children" : [
                2,
                3,
                4,
                5
            ],
            "mesh" : 6,
            "name" : "Cup",
            "scale" : [
                0.08233091980218887,
                0.08233091980218887,
                0.08233091980218887
            ],
            "translation" : [
                0,
                -0.1419466882944107,
                0
            ]
        },
        {
            "name" : "Empty",
            "rotation" : [
                0,
                0.7071068286895752,
                0,
                0.7071068286895752
            ]
        }
    ],
    "materials" : [
        {
            "doubleSided" : true,
            "name" : "Cardboard",
            "normalTexture" : {
                "index" : 0
            },
            "pbrMetallicRoughness" : {
                "baseColorTexture" : {
                    "index" : 1
                },
                "metallicFactor" : 0,
                "metallicRoughnessTexture" : {
                    "index" : 2
                }
            }
        },
        {
            "alphaMode" : "BLEND",
            "doubleSided" : true,
            "name" : "bandiera",
            "pbrMetallicRoughness" : {
                "baseColorTexture" : {
                    "index" : 3
                },
                "metallicFactor" : 0,
                "roughnessFactor" : 0.5
            }
        },
        {
            "alphaMode" : "BLEND",
            "doubleSided" : true,
            "name" : "gluck",
            "pbrMetallicRoughness" : {
                "baseColorTexture" : {
                    "index" : 4
                },
                "metallicFactor" : 0,
                "roughnessFactor" : 0.5
            }
        },
        {
            "doubleSided" : true,
            "extensions" : {
                "KHR_materials_transmission" : {
                    "transmissionFactor" : 1
                },
                "KHR_materials_specular" : {
                    "specularColorFactor" : [
                        1,
                        1,
                        1
                    ]
                },
                "KHR_materials_ior" : {
                    "ior" : 1.3300000429153442
                }
            },
            "name" : "Water",
            "pbrMetallicRoughness" : {
                "baseColorFactor" : [
                    0,
                    0,
                    0,
                    1
                ],
                "metallicFactor" : 0,
                "roughnessFactor" : 0
            }
        }
    ],
    "meshes" : [
        {
            "name" : "Plane.001",
            "primitives" : [
                {
                    "attributes" : {
                        "POSITION" : 0,
                        "NORMAL" : 1,
                        "TEXCOORD_0" : 2
                    },
                    "indices" : 3,
                    "material" : 0
                }
            ]
        },
        {
            "name" : "bandiera",
            "primitives" : [
                {
                    "attributes" : {
                        "POSITION" : 4,
                        "NORMAL" : 5,
                        "TEXCOORD_0" : 6
                    },
                    "indices" : 7,
                    "material" : 1
                }
            ]
        },
        {
            "name" : "Cylinder",
            "primitives" : [
                {
                    "attributes" : {
                        "POSITION" : 8,
                        "NORMAL" : 9,
                        "TEXCOORD_0" : 10
                    },
                    "indices" : 11,
                    "material" : 0
                }
            ]
        },
        {
            "name" : "bandiera.002",
            "primitives" : [
                {
                    "attributes" : {
                        "POSITION" : 12,
                        "NORMAL" : 13,
                        "TEXCOORD_0" : 14
                    },
                    "indices" : 15,
                    "material" : 1
                }
            ]
        },
        {
            "name" : "gluck",
            "primitives" : [
                {
                    "attributes" : {
                        "POSITION" : 16,
                        "NORMAL" : 17,
                        "TEXCOORD_0" : 18
                    },
                    "indices" : 19,
                    "material" : 2
                }
            ]
        },
        {
            "name" : "Circle",
            "primitives" : [
                {
                    "attributes" : {
                        "POSITION" : 20,
                        "NORMAL" : 21,
                        "TEXCOORD_0" : 22
                    },
                    "indices" : 23,
                    "material" : 3
                }
            ]
        },
        {
            "name" : "Circle.001",
            "primitives" : [
                {
                    "attributes" : {
                        "POSITION" : 24,
                        "NORMAL" : 25,
                        "TEXCOORD_0" : 26
                    },
                    "indices" : 27,
                    "material" : 0
                }
            ]
        }
    ],
    "textures" : [
        {
            "sampler" : 0,
            "source" : 0
        },
        {
            "sampler" : 0,
            "source" : 1
        },
        {
            "sampler" : 0,
            "source" : 2
        },
        {
            "sampler" : 1,
            "source" : 3
        },
        {
            "sampler" : 1,
            "source" : 4
        }
    ],
    "images" : [
        {
            "bufferView" : 4,
            "mimeType" : "image/jpeg",
            "name" : "Paper005_1K-JPG_NormalGL"
        },
        {
            "bufferView" : 5,
            "mimeType" : "image/jpeg",
            "name" : "Paper005_1K-JPG_Color"
        },
        {
            "bufferView" : 6,
            "mimeType" : "image/png",
            "name" : "Paper005_1K-JPG_Roughness"
        },
        {
            "bufferView" : 11,
            "mimeType" : "image/png",
            "name" : "bandiera"
        },
        {
            "bufferView" : 24,
            "mimeType" : "image/png",
            "name" : "gluck"
        }
    ],
    "accessors" : [
        {
            "bufferView" : 0,
            "componentType" : 5126,
            "count" : 102,
            "max" : [
                0.005408408585935831,
                0.10958932340145111,
                -0.0979108065366745
            ],
            "min" : [
                -0.005408408585935831,
                0.10400419682264328,
                -0.10100513696670532
            ],
            "type" : "VEC3"
        },
        {
            "bufferView" : 1,
            "componentType" : 5126,
            "count" : 102,
            "type" : "VEC3"
        },
        {
            "bufferView" : 2,
            "componentType" : 5126,
            "count" : 102,
            "type" : "VEC2"
        },
        {
            "bufferView" : 3,
            "componentType" : 5123,
            "count" : 156,
            "type" : "SCALAR"
        },
        {
            "bufferView" : 7,
            "componentType" : 5126,
            "count" : 16,
            "max" : [
                0.1702658236026764,
                0.21362550556659698,
                0.1702658236026764
            ],
            "min" : [
                -0.1702658236026764,
                0.17600469291210175,
                -0.1702658236026764
            ],
            "type" : "VEC3"
        },
        {
            "bufferView" : 8,
            "componentType" : 5126,
            "count" : 16,
            "type" : "VEC3"
        },
        {
            "bufferView" : 9,
            "componentType" : 5126,
            "count" : 16,
            "type" : "VEC2"
        },
        {
            "bufferView" : 10,
            "componentType" : 5123,
            "count" : 24,
            "type" : "SCALAR"
        },
        {
            "bufferView" : 12,
            "componentType" : 5126,
            "count" : 544,
            "max" : [
                0.11129447817802429,
                0.21376456320285797,
                0.11129448562860489
            ],
            "min" : [
                -0.11129450052976608,
                0.10508394241333008,
                -0.11129451543092728
            ],
            "type" : "VEC3"
        },
        {
            "bufferView" : 13,
            "componentType" : 5126,
            "count" : 544,
            "type" : "VEC3"
        },
        {
            "bufferView" : 14,
            "componentType" : 5126,
            "count" : 544,
            "type" : "VEC2"
        },
        {
            "bufferView" : 15,
            "componentType" : 5123,
            "count" : 1488,
            "type" : "SCALAR"
        },
        {
            "bufferView" : 16,
            "componentType" : 5126,
            "count" : 289,
            "max" : [
                0.6329922676086426,
                -0.057256340980529785,
                0.49948835372924805
            ],
            "min" : [
                -0.6329922676086426,
                -0.2984314560890198,
                -0.5106201171875
            ],
            "type" : "VEC3"
        },
        {
            "bufferView" : 17,
            "componentType" : 5126,
            "count" : 289,
            "type" : "VEC3"
        },
        {
            "bufferView" : 18,
            "componentType" : 5126,
            "count" : 289,
            "type" : "VEC2"
        },
        {
            "bufferView" : 19,
            "componentType" : 5123,
            "count" : 1536,
            "type" : "SCALAR"
        },
        {
            "bufferView" : 20,
            "componentType" : 5126,
            "count" : 256,
            "max" : [
                0.693549633026123,
                0.3271373510360718,
                0.566964328289032
            ],
            "min" : [
                -0.6226209998130798,
                0.01710522174835205,
                -0.538701593875885
            ],
            "type" : "VEC3"
        },
        {
            "bufferView" : 21,
            "componentType" : 5126,
            "count" : 256,
            "type" : "VEC3"
        },
        {
            "bufferView" : 22,
            "componentType" : 5126,
            "count" : 256,
            "type" : "VEC2"
        },
        {
            "bufferView" : 23,
            "componentType" : 5123,
            "count" : 384,
            "type" : "SCALAR"
        },
        {
            "bufferView" : 25,
            "componentType" : 5126,
            "count" : 289,
            "max" : [
                1,
                0.04591172933578491,
                1
            ],
            "min" : [
                -1,
                0,
                -1
            ],
            "type" : "VEC3"
        },
        {
            "bufferView" : 26,
            "componentType" : 5126,
            "count" : 289,
            "type" : "VEC3"
        },
        {
            "bufferView" : 27,
            "componentType" : 5126,
            "count" : 289,
            "type" : "VEC2"
        },
        {
            "bufferView" : 28,
            "componentType" : 5123,
            "count" : 1536,
            "type" : "SCALAR"
        },
        {
            "bufferView" : 29,
            "componentType" : 5126,
            "count" : 475,
            "max" : [
                1.482967734336853,
                3.8947906494140625,
                1.482967734336853
            ],
            "min" : [
                -1.482967734336853,
                0,
                -1.482967734336853
            ],
            "type" : "VEC3"
        },
        {
            "bufferView" : 30,
            "componentType" : 5126,
            "count" : 475,
            "type" : "VEC3"
        },
        {
            "bufferView" : 31,
            "componentType" : 5126,
            "count" : 475,
            "type" : "VEC2"
        },
        {
            "bufferView" : 32,
            "componentType" : 5123,
            "count" : 1332,
            "type" : "SCALAR"
        }
    ],
    "bufferViews" : [
        {
            "buffer" : 0,
            "byteLength" : 1224,
            "byteOffset" : 0,
            "target" : 34962
        },
        {
            "buffer" : 0,
            "byteLength" : 1224,
            "byteOffset" : 1224,
            "target" : 34962
        },
        {
            "buffer" : 0,
            "byteLength" : 816,
            "byteOffset" : 2448,
            "target" : 34962
        },
        {
            "buffer" : 0,
            "byteLength" : 312,
            "byteOffset" : 3264,
            "target" : 34963
        },
        {
            "buffer" : 0,
            "byteLength" : 1092476,
            "byteOffset" : 3576
        },
        {
            "buffer" : 0,
            "byteLength" : 958473,
            "byteOffset" : 1096052
        },
        {
            "buffer" : 0,
            "byteLength" : 661234,
            "byteOffset" : 2054528
        },
        {
            "buffer" : 0,
            "byteLength" : 192,
            "byteOffset" : 2715764,
            "target" : 34962
        },
        {
            "buffer" : 0,
            "byteLength" : 192,
            "byteOffset" : 2715956,
            "target" : 34962
        },
        {
            "buffer" : 0,
            "byteLength" : 128,
            "byteOffset" : 2716148,
            "target" : 34962
        },
        {
            "buffer" : 0,
            "byteLength" : 48,
            "byteOffset" : 2716276,
            "target" : 34963
        },
        {
            "buffer" : 0,
            "byteLength" : 17533,
            "byteOffset" : 2716324
        },
        {
            "buffer" : 0,
            "byteLength" : 6528,
            "byteOffset" : 2733860,
            "target" : 34962
        },
        {
            "buffer" : 0,
            "byteLength" : 6528,
            "byteOffset" : 2740388,
            "target" : 34962
        },
        {
            "buffer" : 0,
            "byteLength" : 4352,
            "byteOffset" : 2746916,
            "target" : 34962
        },
        {
            "buffer" : 0,
            "byteLength" : 2976,
            "byteOffset" : 2751268,
            "target" : 34963
        },
        {
            "buffer" : 0,
            "byteLength" : 3468,
            "byteOffset" : 2754244,
            "target" : 34962
        },
        {
            "buffer" : 0,
            "byteLength" : 3468,
            "byteOffset" : 2757712,
            "target" : 34962
        },
        {
            "buffer" : 0,
            "byteLength" : 2312,
            "byteOffset" : 2761180,
            "target" : 34962
        },
        {
            "buffer" : 0,
            "byteLength" : 3072,
            "byteOffset" : 2763492,
            "target" : 34963
        },
        {
            "buffer" : 0,
            "byteLength" : 3072,
            "byteOffset" : 2766564,
            "target" : 34962
        },
        {
            "buffer" : 0,
            "byteLength" : 3072,
            "byteOffset" : 2769636,
            "target" : 34962
        },
        {
            "buffer" : 0,
            "byteLength" : 2048,
            "byteOffset" : 2772708,
            "target" : 34962
        },
        {
            "buffer" : 0,
            "byteLength" : 768,
            "byteOffset" : 2774756,
            "target" : 34963
        },
        {
            "buffer" : 0,
            "byteLength" : 125625,
            "byteOffset" : 2775524
        },
        {
            "buffer" : 0,
            "byteLength" : 3468,
            "byteOffset" : 2901152,
            "target" : 34962
        },
        {
            "buffer" : 0,
            "byteLength" : 3468,
            "byteOffset" : 2904620,
            "target" : 34962
        },
        {
            "buffer" : 0,
            "byteLength" : 2312,
            "byteOffset" : 2908088,
            "target" : 34962
        },
        {
            "buffer" : 0,
            "byteLength" : 3072,
            "byteOffset" : 2910400,
            "target" : 34963
        },
        {
            "buffer" : 0,
            "byteLength" : 5700,
            "byteOffset" : 2913472,
            "target" : 34962
        },
        {
            "buffer" : 0,
            "byteLength" : 5700,
            "byteOffset" : 2919172,
            "target" : 34962
        },
        {
            "buffer" : 0,
            "byteLength" : 3800,
            "byteOffset" : 2924872,
            "target" : 34962
        },
        {
            "buffer" : 0,
            "byteLength" : 2664,
            "byteOffset" : 2928672,
            "target" : 34963
        }
    ],
    "samplers" : [
        {
            "magFilter" : 9729,
            "minFilter" : 9987
        },
        {
            "magFilter" : 9729,
            "minFilter" : 9987,
            "wrapS" : 33071,
            "wrapT" : 33071
        }
    ],
    "buffers" : [
        {
            "byteLength" : 2931336,
            "uri" : "data:application/octet-stream;base64,"
        }
    ]
}
