<svg id="Loghi" xmlns="http://www.w3.org/2000/svg" viewBox="0 0 61.93 61.93"><defs><style>.cls-1{fill:#bf7114;}.cls-2{fill:#f49800;}.cls-3{fill:#1d1d1b;}</style></defs><g id="Logo_Arancione" data-name="Logo Arancione"><path id="Tappo" class="cls-1" d="M61.56,32c0,1,1.51,2.12,1.4,3.16S61.15,37,61,38s1.07,2.3.76,3.27-2.11,1.4-2.49,2.28.61,2.42.14,3.3-2.33.94-2.86,1.72S56.65,51,56,51.8s-2.44.46-3.11,1.13-.34,2.45-1.1,3.08-2.49,0-3.28.53-.8,2.35-1.69,2.82-2.45-.47-3.33-.1-1.27,2.16-2.24,2.46S38.91,60.79,38,61s-1.72,1.86-2.77,2S33,61.59,32,61.59,29.87,63.07,28.82,63,27,61.18,26,61s-2.31,1-3.28.73-1.38-2.08-2.27-2.46-2.43.58-3.31.1-.92-2.29-1.71-2.82S13,56.65,12.21,56s-.46-2.41-1.12-3.08S8.62,52.56,8,51.8s0-2.46-.51-3.25-2.36-.83-2.84-1.72.48-2.42.11-3.3-2.17-1.3-2.47-2.28S3.22,38.94,3,38s-1.88-1.75-2-2.8S2.43,33,2.43,32,.93,29.86,1,28.82,2.83,27,3,26.06s-1-2.34-.75-3.31,2.1-1.35,2.47-2.24-.59-2.46-.11-3.34,2.3-.89,2.84-1.68S7.35,13,8,12.2s2.43-.41,3.1-1.08.35-2.5,1.12-3.13,2.47,0,3.25-.48.82-2.4,1.71-2.87,2.43.52,3.31.14,1.29-2.2,2.27-2.5,2.32,1,3.28.78,1.74-1.91,2.79-2S31,2.46,32,2.46,34.14.93,35.18,1,37,2.86,38,3.06,40.28,2,41.26,2.28s1.35,2.13,2.24,2.5,2.45-.62,3.33-.14.9,2.34,1.69,2.87S51,7.35,51.8,8s.43,2.46,1.1,3.13,2.48.32,3.11,1.08,0,2.51.5,3.29,2.38.79,2.86,1.68-.51,2.46-.14,3.34,2.19,1.26,2.49,2.24-1,2.35-.76,3.31,1.89,1.71,2,2.76S61.56,31,61.56,32Z" transform="translate(-1.04 -1.03)"/><circle id="Background" class="cls-2" cx="30.96" cy="30.97" r="28.33"/><g id="Logo"><g id="Bar"><path class="cls-3" d="M5.5,27.48a5.54,5.54,0,0,1,.25-.91,5.89,5.89,0,0,1,.45-1,5.47,5.47,0,0,1,.65-.87,2.11,2.11,0,0,1,.82-.57c.23-.09.38-.05.45.09a1.65,1.65,0,0,1,.13.55,3.06,3.06,0,0,0,.1.57q.06.25.3.18A.73.73,0,0,0,9,25.32a1.4,1.4,0,0,0,.26-.55c.23-.82.44-1.59.61-2.31s.37-1.44.58-2.15a25.12,25.12,0,0,1,2.58-6,15.09,15.09,0,0,1,1.86-2.61,9.1,9.1,0,0,1,1.65-1.52c.48-.31.77-.42.92-.31s0,.55-.37,1.36A44.69,44.69,0,0,0,14.91,17a42.2,42.2,0,0,0-1.48,6.81,13.35,13.35,0,0,1-.61,2.56,11.85,11.85,0,0,1-1.11,2.38,7.94,7.94,0,0,1-1.51,1.81,3.84,3.84,0,0,1-1.81.91A2.31,2.31,0,0,1,6,30.54a3.07,3.07,0,0,1-.55-1.3A5,5,0,0,1,5.5,27.48Zm10.94-16.4a1.45,1.45,0,0,0-.41.41,4.79,4.79,0,0,0-.37.58,4.82,4.82,0,0,0-.31.59c-.09.2-.17.35-.22.47s-.12.24-.2.43-.17.36-.24.54a1.33,1.33,0,0,0-.09.41c0,.11.05.14.15.1a.92.92,0,0,0,.34-.27,2.42,2.42,0,0,0,.29-.42,5.21,5.21,0,0,0,.24-.47l.19-.4.21-.51c.1-.24.19-.49.29-.73a5.61,5.61,0,0,0,.21-.6C16.56,11.05,16.54,11,16.44,11.08Zm-1.73,4a1.2,1.2,0,0,0-.47.43,3,3,0,0,0-.35.61c-.11.29-.05.4.17.32a1.08,1.08,0,0,0,.42-.33,1.87,1.87,0,0,0,.33-.55,1.23,1.23,0,0,0,.06-.36C14.87,15.09,14.82,15.05,14.71,15.09Z" transform="translate(-1.04 -1.03)"/><path class="cls-3" d="M21.54,30.08a8.44,8.44,0,0,1-3.28-.8,4.79,4.79,0,0,1-1.91-1.79,6.52,6.52,0,0,1-.87-2.68,14.39,14.39,0,0,1,0-3.4,45.44,45.44,0,0,1,.81-4.67,36.15,36.15,0,0,1,1.27-4.37c.19-.53.39-1,.6-1.49a9.58,9.58,0,0,1,.68-1.24,5.66,5.66,0,0,1,.83-1A3.77,3.77,0,0,1,20.77,8c.6-.25.94-.18,1.06.21a4.28,4.28,0,0,1-.13,2,59.59,59.59,0,0,0-1.45,10.14,4.69,4.69,0,0,0,0,.74,2.94,2.94,0,0,0,.17.75,1.5,1.5,0,0,0,.38.57.89.89,0,0,0,.63.23,1.35,1.35,0,0,0,1.24-.75A6,6,0,0,0,23.3,20a16.68,16.68,0,0,0,.27-2.11c0-.71.08-1.28.1-1.71s0-1,.07-1.5.06-1,.1-1.46c0-.77.06-1.15.12-1.89.05-.47.09-.93.14-1.38s.1-.91.16-1.35A2.79,2.79,0,0,1,25,7a2.25,2.25,0,0,1,1.15-.7.86.86,0,0,1,1,.62,6.77,6.77,0,0,1,.43,2,24.58,24.58,0,0,1,.05,2.6q0,1.38-.06,2.31l0,2.45c0,.83,0,1.69,0,2.56,0,1.7-.05,3.3-.14,4.76a14.52,14.52,0,0,1-.63,3.73,4,4,0,0,1-1.66,2.25A6.05,6.05,0,0,1,21.54,30.08Zm5.05-22.4a.56.56,0,0,0-.33.38,5.16,5.16,0,0,0-.15.67,6,6,0,0,0-.05.73c0,.25,0,.44,0,.59s0,.29,0,.52,0,.45,0,.67a1.74,1.74,0,0,0,.1.55c.06.16.14.23.26.23a.39.39,0,0,0,.31-.21,1.77,1.77,0,0,0,.17-.46,4.37,4.37,0,0,0,.08-.54,4.57,4.57,0,0,0,0-.49c0-.12,0-.34,0-.63s0-.61,0-.93a3.56,3.56,0,0,0-.1-.8C26.78,7.74,26.7,7.65,26.59,7.68Zm-.06,5c-.17,0-.3.14-.41.37a1.75,1.75,0,0,0-.17.68c0,.36.1.53.33.52a.48.48,0,0,0,.4-.26,1.08,1.08,0,0,0,.17-.6,1.31,1.31,0,0,0-.07-.47C26.73,12.75,26.64,12.67,26.53,12.67Z" transform="translate(-1.04 -1.03)"/><path class="cls-3" d="M34.18,5.75c.26,0,.47.29.66.9a7.63,7.63,0,0,1,.27,2.16,7,7,0,0,1-.35,2.29c-.23.61-.53.9-.88.87l-.32,0q.09,2.76,0,6c0,2.13-.11,4.25-.23,6.31,1,.13,1.49,1.31,1.4,3.62a7.44,7.44,0,0,1-.63,3.07c-.36.68-.82,1-1.38.88l-.19,0a.72.72,0,0,1-.24-.09l-1.18-.32a1,1,0,0,0-.23-.1l-.17,0a2.28,2.28,0,0,1-1.42-1.42,8.4,8.4,0,0,1-.68-3.24,6.13,6.13,0,0,1,.21-2.16c.18-.5.45-.73.79-.69l.45.06C30,21.89,30,19.93,30,17.9s.07-4,.09-5.88a1.4,1.4,0,0,1-1.33-.63,4.38,4.38,0,0,1-.32-2.17,7.61,7.61,0,0,1,.36-2.37c.21-.57.47-.88.8-.93A24.11,24.11,0,0,1,34.18,5.75Zm-.54,19.54a.29.29,0,0,0-.31.19,1.11,1.11,0,0,0,0,.59c0,.28.09.61.12,1a8.24,8.24,0,0,1,0,.88.46.46,0,0,0,.08.34.4.4,0,0,0,.18.12c.2,0,.32-.44.35-1.39,0-.06,0-.18,0-.37a5.62,5.62,0,0,0-.06-.56c0-.19-.08-.36-.13-.52S33.74,25.31,33.64,25.29ZM34,6.57c-.12,0-.22.09-.25.31a3.26,3.26,0,0,0,.06.49,4.93,4.93,0,0,0,.11.49A2.6,2.6,0,0,1,34,8.3c0,.17,0,.32,0,.46a1.88,1.88,0,0,0,.1.35.26.26,0,0,0,.23.16c.12,0,.21-.08.26-.26a2.24,2.24,0,0,0,.11-.55,3.14,3.14,0,0,0-.16-1.18C34.42,6.88,34.21,6.61,34,6.57Zm.36,3c-.07,0-.14,0-.19.14a1,1,0,0,0-.1.34,3.19,3.19,0,0,0,0,.42c0,.14.09.21.15.22a.19.19,0,0,0,.23-.09.85.85,0,0,0,.12-.38,1.33,1.33,0,0,0,0-.39A.35.35,0,0,0,34.33,9.61Z" transform="translate(-1.04 -1.03)"/><path class="cls-3" d="M40.33,33a3.55,3.55,0,0,1-2.72-1.19,7.32,7.32,0,0,1-1.41-3.1,25,25,0,0,1-.56-4.7c-.07-1.82-.08-3.82,0-6,0-1.89.14-3.59.29-5.14A18.67,18.67,0,0,1,36.67,9a4.86,4.86,0,0,1,1.41-2.31,2.26,2.26,0,0,1,2.26-.28A5.58,5.58,0,0,1,43,8.29a11.06,11.06,0,0,1,1.85,4c.19.67.37,1.45.53,2.34a22.83,22.83,0,0,1,.33,2.26c.1,1-.06,1.69-.46,2a1.91,1.91,0,0,1-1.57.36,1.72,1.72,0,0,1-1-.55,3,3,0,0,1-.57-1.5,9.34,9.34,0,0,1-.1-1.31c0-.52,0-1-.08-1.49a4.83,4.83,0,0,0-.26-1.25.85.85,0,0,0-.58-.63c-.38-.09-.66.11-.86.6a8.27,8.27,0,0,0-.43,1.82c-.09.73-.15,1.48-.18,2.27s0,1.41,0,1.86,0,1.08,0,1.8A18.74,18.74,0,0,0,39.61,23,8,8,0,0,0,40,24.83a1.15,1.15,0,0,0,1,.85,1.12,1.12,0,0,0,.93-.23,1.61,1.61,0,0,0,.42-.7,4.94,4.94,0,0,0,.19-1,3.62,3.62,0,0,1,.2-.94,1.42,1.42,0,0,1,.5-.66A1.55,1.55,0,0,1,44.32,22a1.53,1.53,0,0,1,1.39,1,6.41,6.41,0,0,1,.34,2.36,10.52,10.52,0,0,1-.51,3.23A8,8,0,0,1,44.25,31a5.42,5.42,0,0,1-1.81,1.5A4.48,4.48,0,0,1,40.33,33ZM42.1,8.76Q42,8.81,42,9a1,1,0,0,0,.07.44l.31.82c.12.3.25.6.39.91a3.19,3.19,0,0,1,.21.59,5.71,5.71,0,0,0,.16.57,2.34,2.34,0,0,0,.19.45.56.56,0,0,0,.33.26c.16,0,.27-.17.28-.57A4.55,4.55,0,0,0,43.62,11a7.13,7.13,0,0,0-.86-1.73C42.45,8.82,42.23,8.65,42.1,8.76Zm1.62,5.31a1.91,1.91,0,0,0,.1.58A.87.87,0,0,0,44,15c.14.13.26.13.37,0a.8.8,0,0,0,.14-.55,1.14,1.14,0,0,0-.34-.85C43.87,13.32,43.71,13.45,43.72,14.07Z" transform="translate(-1.04 -1.03)"/><path class="cls-3" d="M49.27,32.52c-1,.1-1.58-.17-1.87-.8A6.21,6.21,0,0,1,47.06,29a59.71,59.71,0,0,0-.71-14.08c-.07-.41-.16-.94-.29-1.57s-.23-1.24-.31-1.82a5.1,5.1,0,0,1,0-1.38c0-.35.23-.45.54-.32a15.83,15.83,0,0,1,1.93,1A13.28,13.28,0,0,1,50,12.1a6,6,0,0,1,.51.51l.72.78.73.8c.23.26.4.47.51.61s.31.43.45.64a2,2,0,0,1,.27.53.33.33,0,0,1,0,.33c-.06.07-.21.07-.44,0-1.14-.34-1.72-.5-2.92-.78.29.81.43,1.23.69,2.06l2.42.61a2.33,2.33,0,0,1,1.3.86,5.35,5.35,0,0,1,.86,1.46,5.86,5.86,0,0,1,.22.7,2.68,2.68,0,0,1,.09.78,1.3,1.3,0,0,1-.16.65.58.58,0,0,1-.58.26c-1.28-.06-1.91-.11-3.15-.2.24,1.28.35,1.93.51,3.25l1.67,0a.66.66,0,0,0,.52-.24,6.14,6.14,0,0,0,.33-.53,1.79,1.79,0,0,1,.38-.51.83.83,0,0,1,.62-.22,3.13,3.13,0,0,1,1.76.51,2.28,2.28,0,0,1,1,1.51,8.79,8.79,0,0,1,.21,2.08A2.69,2.69,0,0,1,58,30a3.42,3.42,0,0,1-1.3,1.06,10,10,0,0,1-2.24.71c-.53.11-1.07.22-1.61.3l-1.57.22C50.47,32.39,50.07,32.44,49.27,32.52Zm.45-20.39s0,0,0,.06a.67.67,0,0,0,.11.19c.15.19.26.33.35.43s.16.2.22.29l.49.66a1.73,1.73,0,0,0,.58.52c.14.08.19,0,.13-.1a3.67,3.67,0,0,0-.53-.75c-.35-.4-.63-.71-.86-.93A1.56,1.56,0,0,0,49.72,12.13ZM53,18.64a.1.1,0,0,0,0,.09.21.21,0,0,0,0,.16,2.77,2.77,0,0,1,.17.3c0,.07.11.17.2.3a2.35,2.35,0,0,1,.33.57c.07.2.18.32.35.34a.21.21,0,0,0,.26-.18,1.11,1.11,0,0,0-.23-.65,2.66,2.66,0,0,0-.6-.72C53.24,18.7,53.09,18.62,53,18.64Zm-1.27-3.86a2.29,2.29,0,0,0,.17.27,1.66,1.66,0,0,0,.23.23c.09.07.15.08.17.05s0-.12,0-.21a1.76,1.76,0,0,0-.39-.47C51.6,14.45,51.56,14.49,51.69,14.78Z" transform="translate(-1.04 -1.03)"/></g><g id="Juice"><path class="cls-3" d="M17.35,54.52a19.94,19.94,0,0,1-2.51-2c-.74-.68-1.46-1.38-2.15-2.09s-1.39-1.46-2-2.27a20.62,20.62,0,0,1-2-2.81,22.4,22.4,0,0,1-2.3-5.22,26.6,26.6,0,0,1-.76-3,6.6,6.6,0,0,1,0-2.63A3.92,3.92,0,0,1,7,32.4a6.25,6.25,0,0,1,3.27-1.28,21.07,21.07,0,0,1,4.55-.21,8.31,8.31,0,0,1,3.58,1,6.11,6.11,0,0,1,2.35,2.48,9.33,9.33,0,0,1,.81,4.07,6.51,6.51,0,0,1-.25,1.87,6.75,6.75,0,0,1-.75,1.75,6,6,0,0,1-1.1,1.32,2.48,2.48,0,0,1-1.42.63,5.54,5.54,0,0,1,3.25,2,7.89,7.89,0,0,1,1.56,4.34,6.91,6.91,0,0,1-.28,3.21,3,3,0,0,1-1.24,1.62,2.41,2.41,0,0,1-1.79.23A7,7,0,0,1,17.35,54.52ZM11.62,40.36a1,1,0,0,0,.33.07,3.38,3.38,0,0,0,2-.36,1.36,1.36,0,0,0,.72-1.43A1.23,1.23,0,0,0,14,37.8a3.3,3.3,0,0,0-1.7-.4H11.8a2.17,2.17,0,0,0-.7.07,4.52,4.52,0,0,0,.15,1.45c.08.5.17,1,.26,1.43ZM14,48.6a1.42,1.42,0,0,0,.42.63,4.7,4.7,0,0,0,.94.42c1.31.47,1.86.17,1.58-.88a4.09,4.09,0,0,0-1.23-1.86,6.71,6.71,0,0,0-2.88-1.43C13.29,46.76,13.52,47.38,14,48.6Zm2-15.4a.59.59,0,0,0-.25.36.83.83,0,0,0,0,.54,2.76,2.76,0,0,0,.57.78,6.45,6.45,0,0,1,.71.89,1.93,1.93,0,0,1,.32.7,4.13,4.13,0,0,0,.21.7,2.06,2.06,0,0,0,.31.53.85.85,0,0,0,.58.25c.36,0,.58-.21.68-.71A3.41,3.41,0,0,0,19,35.42a3.7,3.7,0,0,0-1.49-1.93C16.85,33.11,16.38,33,16.06,33.2Zm1.7,6.09a1.22,1.22,0,0,0,.14.65.81.81,0,0,0,.37.43.54.54,0,0,0,.65,0,.8.8,0,0,0,.32-.66.92.92,0,0,0-.53-1C18.11,38.37,17.79,38.57,17.76,39.29Z" transform="translate(-1.04 -1.03)"/><path class="cls-3" d="M27.17,58a3.65,3.65,0,0,1-2.26-1.2,4.73,4.73,0,0,1-.95-2.6,9.82,9.82,0,0,1,0-1.49c0-.64.09-1.39.18-2.23s.22-1.77.4-2.77.4-2,.63-3,.49-2,.75-2.94.51-1.77.76-2.46c.47-1.35.91-2.48,1.3-3.36a10.71,10.71,0,0,1,1.2-2.07,2.82,2.82,0,0,1,1.21-1,2.38,2.38,0,0,1,1.34-.07,4.74,4.74,0,0,1,1.95.88,6.43,6.43,0,0,1,1.66,2.17,21.12,21.12,0,0,1,1.47,3.95,57.75,57.75,0,0,1,1.29,6.05c.13.84.28,1.79.42,2.85s.26,2.08.36,3,.16,1.81.21,2.53a11.44,11.44,0,0,1,0,1.52c-.1,1.41-1,2.34-2.87,2.63a2.34,2.34,0,0,1-1.48-.14,1.81,1.81,0,0,1-.81-.85A5.46,5.46,0,0,1,33.5,56c-.09-.56-.22-1.21-.37-1.94a27.37,27.37,0,0,1-3.5-.19c-.06.48-.12,1-.17,1.53a5.72,5.72,0,0,1-.31,1.42,2.26,2.26,0,0,1-.69,1A1.56,1.56,0,0,1,27.17,58Zm5.36-9.74c0-.44,0-1,0-1.67s-.08-1.33-.15-2-.16-1.19-.25-1.67-.18-.72-.29-.73-.22.17-.36.55a9.45,9.45,0,0,0-.4,1.46c-.13.59-.25,1.23-.36,1.91a15.64,15.64,0,0,0-.19,2C31.32,48.16,31.71,48.19,32.53,48.24Zm1-11.78c-.17.13-.24.46-.21,1a9.73,9.73,0,0,0,.37,2c.5,1.77,1,2.48,1.53,2.18s.49-1.13,0-2.53a8.69,8.69,0,0,0-.92-2C34.06,36.49,33.79,36.31,33.58,36.46Zm1.71,6.31a1.17,1.17,0,0,0,.1,1.12.43.43,0,0,0,.31.17.57.57,0,0,0,.4-.16.76.76,0,0,0,.25-.42,1.09,1.09,0,0,0-.21-1,.53.53,0,0,0-.38-.22C35.56,42.23,35.4,42.41,35.29,42.77Z" transform="translate(-1.04 -1.03)"/><path class="cls-3" d="M40.51,46.08c0-.41,0-.62,0-1,0-.81,0-1.22,0-2L40.41,42c0-1-.08-2-.08-2.91a17,17,0,0,1,.18-2.59,4.61,4.61,0,0,1,.66-1.83,1.57,1.57,0,0,1,1.36-.69c.41,0,.89,0,1.44-.08l1.78-.13c1.74-.11,3.38-.19,4.84-.19a11.21,11.21,0,0,1,3.75.52,3.68,3.68,0,0,1,2.18,1.83,5.6,5.6,0,0,1,.13,3.61A9.65,9.65,0,0,1,56,41.36a14.83,14.83,0,0,1-1.18,2,19.58,19.58,0,0,1-1.63,2,18.82,18.82,0,0,1-2,1.94,1.87,1.87,0,0,0,.7.36,1.2,1.2,0,0,0,.78-.09c.25-.11.48-.21.69-.28a.73.73,0,0,1,.45-.07c.11,0,.13.14.06.31a4.12,4.12,0,0,1-.55.85A25.86,25.86,0,0,1,49,52.8a8.09,8.09,0,0,1-.7.51,1.06,1.06,0,0,1-.55.2c-.13,0-.24-.1-.36-.31s-.25-.48-.4-.82-.31-.73-.48-1.15-.34-.81-.49-1.16l-.1,0,0,.27c0,.15-.05.35-.07.59l-.09.74c0,.25-.07.48-.1.7s-.08.41-.12.58c-.11.43-.23.82-.36,1.18a4.25,4.25,0,0,1-.48,1,3.8,3.8,0,0,1-.75.82,4.62,4.62,0,0,1-1.22.72,5,5,0,0,1-1,.33,1.56,1.56,0,0,1-.84,0,1,1,0,0,1-.55-.51,2,2,0,0,1-.12-1.11A74.8,74.8,0,0,0,40.51,46.08Zm6.22-.55a11.43,11.43,0,0,0,1.6-.55,4.48,4.48,0,0,0,1.17-.73,3.46,3.46,0,0,0,.75-1,4.16,4.16,0,0,0,.37-1.47A2.26,2.26,0,0,0,50.08,40a2.08,2.08,0,0,0-2-.49l-.64.1a5.19,5.19,0,0,0-.64.13,13.24,13.24,0,0,1,.16,2.94C46.88,43.54,46.81,44.5,46.73,45.53ZM50.8,35.16a.75.75,0,0,0-.34.34.48.48,0,0,0,0,.45,1.11,1.11,0,0,0,.38.36l.67.41a6.48,6.48,0,0,1,.76.53,2.82,2.82,0,0,1,.61.71,1.39,1.39,0,0,1,.15.5,1.83,1.83,0,0,0,.12.5.86.86,0,0,0,.25.36.55.55,0,0,0,.46.09,1.08,1.08,0,0,0,.86-.73,2,2,0,0,0,.08-1.29,2.53,2.53,0,0,0-.69-1.11,4.76,4.76,0,0,0-1.1-.8,4.12,4.12,0,0,0-1.22-.42A1.43,1.43,0,0,0,50.8,35.16Zm2.75,5.21c-.2.41-.16.66.09.73s.34,0,.59-.16a1.51,1.51,0,0,0,.5-.52.62.62,0,0,0,.08-.42.31.31,0,0,0-.26-.22.71.71,0,0,0-.58.08A1,1,0,0,0,53.55,40.37Zm-.68,7.54a2.17,2.17,0,0,0-.52.4.87.87,0,0,0-.24.38,2.14,2.14,0,0,1-.22.6c-.14.28-.26.47-.34.6s-.07.12,0,.1l.19-.11a5,5,0,0,0,1-1.1,1.29,1.29,0,0,0,.15-.24,1.51,1.51,0,0,0,.18-.36.54.54,0,0,0,.06-.28C53.1,47.83,53,47.83,52.87,47.91Z" transform="translate(-1.04 -1.03)"/></g></g></g></svg>