<svg id="Logo" xmlns="http://www.w3.org/2000/svg" viewBox="0 0 41.25 41.25"><defs><style>.cls-1{fill:#6abd45;}.cls-2{fill:#231f20;}</style></defs><circle id="Background" class="cls-1" cx="20.62" cy="20.62" r="20.62"/><g id="Logo-2" data-name="Logo"><g id="Bar"><path class="cls-2" d="M12.71,27.25a4,4,0,0,1,.18-.67,4.19,4.19,0,0,1,.33-.71,3.77,3.77,0,0,1,.47-.64,1.44,1.44,0,0,1,.6-.41c.17-.07.28,0,.33.06a1.12,1.12,0,0,1,.09.4c0,.15,0,.29.07.42a.16.16,0,0,0,.22.13.54.54,0,0,0,.26-.16,1,1,0,0,0,.19-.39c.17-.6.32-1.17.44-1.69s.27-1,.42-1.57a18.42,18.42,0,0,1,1.88-4.37,11.85,11.85,0,0,1,1.35-1.9,6.66,6.66,0,0,1,1.21-1.1c.34-.23.56-.31.66-.23s0,.4-.26,1a31.65,31.65,0,0,0-1.59,4.17,30.58,30.58,0,0,0-1.07,5A9.65,9.65,0,0,1,18,26.4a8.37,8.37,0,0,1-.81,1.73,5.76,5.76,0,0,1-1.1,1.32,2.77,2.77,0,0,1-1.32.67,1.67,1.67,0,0,1-1.71-.65,2.23,2.23,0,0,1-.4-.94A3.68,3.68,0,0,1,12.71,27.25Zm8-11.95a1.19,1.19,0,0,0-.29.3c-.1.14-.19.28-.28.43s-.16.29-.22.43l-.16.34a3.09,3.09,0,0,0-.15.31l-.17.39a.88.88,0,0,0-.07.31c0,.08,0,.1.12.07a.71.71,0,0,0,.24-.2,1.41,1.41,0,0,0,.21-.31,2.68,2.68,0,0,0,.18-.33l.13-.3c0-.07.08-.2.16-.37l.21-.53a2.87,2.87,0,0,0,.15-.44C20.76,15.29,20.74,15.26,20.67,15.3Zm-1.25,2.93a.8.8,0,0,0-.34.31,1.78,1.78,0,0,0-.26.45c-.08.21,0,.29.12.23a.9.9,0,0,0,.31-.24,1.42,1.42,0,0,0,.24-.4.88.88,0,0,0,0-.27C19.53,18.23,19.49,18.2,19.42,18.23Z" transform="translate(-11.38 -9.91)"/><path class="cls-2" d="M24.39,29.14A6.21,6.21,0,0,1,22,28.56a3.59,3.59,0,0,1-1.4-1.3,5,5,0,0,1-.63-2,10.78,10.78,0,0,1,0-2.47c.15-1.17.35-2.31.6-3.4a24.86,24.86,0,0,1,.92-3.18c.14-.39.29-.75.44-1.09a6.39,6.39,0,0,1,.5-.9,3.48,3.48,0,0,1,.6-.72,2.85,2.85,0,0,1,.78-.51c.43-.18.68-.13.77.15a3.27,3.27,0,0,1-.09,1.44A42.65,42.65,0,0,0,23.45,22a3.32,3.32,0,0,0,0,.54,1.94,1.94,0,0,0,.13.54,1,1,0,0,0,.27.42.6.6,0,0,0,.46.16,1,1,0,0,0,.9-.54,4.36,4.36,0,0,0,.45-1.32,11.37,11.37,0,0,0,.19-1.54c0-.51.06-.92.08-1.24s0-.73,0-1.09,0-.71.07-1.07c0-.55.05-.83.09-1.37,0-.34.06-.68.1-1s.07-.65.11-1a2.11,2.11,0,0,1,.51-1.18,1.67,1.67,0,0,1,.84-.51.63.63,0,0,1,.76.46,4.83,4.83,0,0,1,.31,1.46,16.67,16.67,0,0,1,0,1.89c0,.67,0,1.23,0,1.69s0,1.18,0,1.78,0,1.23,0,1.86c0,1.24,0,2.4-.1,3.46a10.52,10.52,0,0,1-.46,2.72A2.92,2.92,0,0,1,27,28.77,4.4,4.4,0,0,1,24.39,29.14Zm3.67-16.3a.36.36,0,0,0-.23.27,2.35,2.35,0,0,0-.11.49,3.15,3.15,0,0,0,0,.53c0,.18,0,.32,0,.43s0,.21,0,.38a3.85,3.85,0,0,0,0,.48,1.27,1.27,0,0,0,.06.41c.05.11.11.16.19.16a.3.3,0,0,0,.23-.15,1.18,1.18,0,0,0,.12-.33,2.57,2.57,0,0,0,.06-.4q0-.19,0-.36v-.46c0-.21,0-.44,0-.67a3,3,0,0,0-.07-.58C28.2,12.87,28.14,12.81,28.06,12.84Zm0,3.63c-.12,0-.22.09-.3.26a1.18,1.18,0,0,0-.12.5c0,.26.07.39.24.38a.36.36,0,0,0,.29-.19.78.78,0,0,0,.12-.44.83.83,0,0,0-.05-.34C28.16,16.52,28.1,16.46,28,16.47Z" transform="translate(-11.38 -9.91)"/><path class="cls-2" d="M33.59,11.43c.18,0,.34.21.47.65a5,5,0,0,1,.2,1.58A5,5,0,0,1,34,15.33c-.17.44-.38.65-.64.63l-.23,0c0,1.34,0,2.79,0,4.34s-.08,3.09-.16,4.59c.72.1,1.08,1,1,2.64a5.34,5.34,0,0,1-.45,2.23c-.26.5-.6.72-1,.65l-.14,0-.17-.06-.86-.24a.56.56,0,0,0-.17-.07l-.12,0a1.67,1.67,0,0,1-1-1,6.1,6.1,0,0,1-.49-2.36A4.25,4.25,0,0,1,29.73,25c.12-.37.32-.54.57-.51l.33.05c-.08-1.36-.11-2.79-.08-4.27s.05-2.91.07-4.28a1,1,0,0,1-1-.45A3.31,3.31,0,0,1,29.42,14a5.63,5.63,0,0,1,.26-1.73c.15-.42.34-.64.58-.68A17.68,17.68,0,0,1,33.59,11.43ZM33.2,25.66a.19.19,0,0,0-.23.13.83.83,0,0,0,0,.43c0,.2.07.44.1.71s0,.49,0,.65a.38.38,0,0,0,.06.24.31.31,0,0,0,.13.09c.15,0,.23-.32.25-1v-.27c0-.14,0-.27,0-.41a2.34,2.34,0,0,0-.09-.38C33.33,25.73,33.27,25.67,33.2,25.66ZM33.44,12c-.09,0-.16.07-.19.23a2.64,2.64,0,0,0,0,.36c0,.16.06.28.08.36a2.36,2.36,0,0,1,0,.31,2.9,2.9,0,0,0,0,.34,1.38,1.38,0,0,0,.07.26.19.19,0,0,0,.17.11c.08,0,.15-.05.19-.19a2,2,0,0,0,.08-.4,2.44,2.44,0,0,0-.12-.86C33.76,12.25,33.61,12.05,33.44,12Zm.25,2.22s-.1,0-.13.1a.91.91,0,0,0-.07.25,1.62,1.62,0,0,0,0,.3c0,.11.06.16.11.17a.14.14,0,0,0,.16-.07.49.49,0,0,0,.09-.28.89.89,0,0,0,0-.28A.23.23,0,0,0,33.69,14.24Z" transform="translate(-11.38 -9.91)"/><path class="cls-2" d="M38.06,31.26a2.55,2.55,0,0,1-2-.86,5.27,5.27,0,0,1-1-2.26,17.7,17.7,0,0,1-.41-3.42c0-1.32-.06-2.78,0-4.33,0-1.37.1-2.62.21-3.74a13.08,13.08,0,0,1,.56-2.84,3.51,3.51,0,0,1,1-1.68,1.63,1.63,0,0,1,1.64-.2A4,4,0,0,1,40,13.28a8.21,8.21,0,0,1,1.35,2.89c.13.49.27,1,.39,1.7s.19,1.21.24,1.65A1.68,1.68,0,0,1,41.61,21a1.41,1.41,0,0,1-1.15.26,1.21,1.21,0,0,1-.73-.4,2.14,2.14,0,0,1-.42-1.09,6.31,6.31,0,0,1-.07-1q0-.57-.06-1.08a3.74,3.74,0,0,0-.19-.91c-.09-.27-.23-.42-.42-.46s-.49.08-.63.44a5.84,5.84,0,0,0-.31,1.32c-.07.53-.11,1.08-.13,1.65s0,1,0,1.36,0,.78,0,1.31A13.3,13.3,0,0,0,37.54,24a5.38,5.38,0,0,0,.32,1.34.86.86,0,0,0,1.36.45,1.21,1.21,0,0,0,.31-.51,3.49,3.49,0,0,0,.13-.7,3.25,3.25,0,0,1,.15-.68,1,1,0,0,1,.37-.48,1,1,0,0,1,.79-.12A1.12,1.12,0,0,1,42,24a4.78,4.78,0,0,1,.25,1.72,7.57,7.57,0,0,1-.37,2.35,6.07,6.07,0,0,1-.94,1.75,3.85,3.85,0,0,1-1.32,1.09A3.21,3.21,0,0,1,38.06,31.26Zm1.29-17.64a.22.22,0,0,0-.06.18.7.7,0,0,0,0,.31c.07.18.15.38.23.6s.18.44.29.66a2.28,2.28,0,0,1,.15.44c0,.15.08.28.11.41a1.66,1.66,0,0,0,.15.33.4.4,0,0,0,.23.18c.13,0,.2-.12.21-.41a3.22,3.22,0,0,0-.24-1.08A4.91,4.91,0,0,0,39.83,14Q39.5,13.5,39.35,13.62Zm1.18,3.86a1.55,1.55,0,0,0,.07.43.64.64,0,0,0,.16.28c.1.09.19.1.26,0a.6.6,0,0,0,.11-.4.79.79,0,0,0-.25-.62C40.64,16.94,40.53,17,40.53,17.48Z" transform="translate(-11.38 -9.91)"/><path class="cls-2" d="M44.57,30.92c-.7.07-1.15-.13-1.36-.58a4.57,4.57,0,0,1-.24-2,43.37,43.37,0,0,0-.53-10.25c0-.3-.11-.68-.2-1.14S42.07,16,42,15.61a3.88,3.88,0,0,1,0-1c0-.25.17-.33.39-.24a11.62,11.62,0,0,1,1.41.71,9.61,9.61,0,0,1,1.31,1c.09.07.21.2.38.37L46,17l.53.58c.17.19.3.34.38.45l.32.46a1.44,1.44,0,0,1,.2.39.22.22,0,0,1,0,.24c0,.05-.15.05-.31,0-.83-.25-1.26-.36-2.13-.57.21.6.31.9.5,1.5l1.76.44a1.82,1.82,0,0,1,1,.63,3.88,3.88,0,0,1,.62,1.06,4.06,4.06,0,0,1,.16.52,1.86,1.86,0,0,1,.07.57.89.89,0,0,1-.12.47.43.43,0,0,1-.42.19c-.93-.05-1.39-.08-2.29-.15.18.93.25,1.41.37,2.37l1.21,0a.45.45,0,0,0,.38-.17,1.84,1.84,0,0,0,.24-.39,1.72,1.72,0,0,1,.28-.37.61.61,0,0,1,.45-.16,2.24,2.24,0,0,1,1.28.37,1.68,1.68,0,0,1,.74,1.1A6.36,6.36,0,0,1,51.29,28a2,2,0,0,1-.35,1.08,2.39,2.39,0,0,1-.95.76,6.43,6.43,0,0,1-1.62.52c-.39.08-.78.16-1.18.22l-1.14.16C45.45,30.82,45.15,30.86,44.57,30.92Zm.33-14.85s0,0,0,.05,0,.07.08.14l.24.31.17.21c.13.17.25.33.35.48a1.54,1.54,0,0,0,.42.38c.11.06.14,0,.1-.08a2.64,2.64,0,0,0-.39-.54c-.25-.29-.46-.52-.62-.68A1.22,1.22,0,0,0,44.9,16.07Zm2.36,4.74a.06.06,0,0,0,0,.06.17.17,0,0,0,0,.13,1.28,1.28,0,0,1,.12.21l.15.22a1.44,1.44,0,0,1,.23.42c.06.14.14.23.26.24a.15.15,0,0,0,.19-.13.82.82,0,0,0-.16-.47,2,2,0,0,0-.44-.52A.52.52,0,0,0,47.26,20.81ZM46.34,18a1,1,0,0,0,.12.19,1.45,1.45,0,0,0,.16.18c.07.05.11.06.13,0s0-.08,0-.15a1.11,1.11,0,0,0-.28-.34C46.27,17.76,46.24,17.79,46.34,18Z" transform="translate(-11.38 -9.91)"/></g><g id="Juice"><path class="cls-2" d="M21.34,46.93a14.56,14.56,0,0,1-1.83-1.44c-.54-.49-1.06-1-1.57-1.52s-1-1.06-1.49-1.66a15.46,15.46,0,0,1-1.42-2,16,16,0,0,1-1.68-3.8,18.88,18.88,0,0,1-.55-2.22,4.74,4.74,0,0,1,0-1.92,2.84,2.84,0,0,1,.95-1.5,4.61,4.61,0,0,1,2.38-.94,15.12,15.12,0,0,1,3.31-.14,5.92,5.92,0,0,1,2.6.75,4.39,4.39,0,0,1,1.71,1.81,6.71,6.71,0,0,1,.6,3,4.7,4.7,0,0,1-.19,1.36,4.86,4.86,0,0,1-.54,1.27,4.35,4.35,0,0,1-.81,1,1.82,1.82,0,0,1-1,.45,4,4,0,0,1,2.37,1.48A5.8,5.8,0,0,1,25.3,44a5,5,0,0,1-.2,2.34,2.26,2.26,0,0,1-.9,1.18,1.79,1.79,0,0,1-1.3.16A4.75,4.75,0,0,1,21.34,46.93ZM17.16,36.62a.74.74,0,0,0,.25.05,2.4,2.4,0,0,0,1.44-.26,1,1,0,0,0,.52-1,.91.91,0,0,0-.45-.61,2.34,2.34,0,0,0-1.23-.29H17.3a1.23,1.23,0,0,0-.51.05,3.21,3.21,0,0,0,.1,1.06c.06.36.13.7.19,1Zm1.76,6a1,1,0,0,0,.31.46,3.54,3.54,0,0,0,.68.31c.95.34,1.35.12,1.15-.65a3,3,0,0,0-.89-1.35,4.91,4.91,0,0,0-2.11-1C18.38,41.28,18.55,41.73,18.92,42.62ZM20.4,31.41a.41.41,0,0,0-.19.26.65.65,0,0,0,0,.39,2,2,0,0,0,.41.57,4.23,4.23,0,0,1,.52.65,1.3,1.3,0,0,1,.23.51,3.07,3.07,0,0,0,.16.51,1.06,1.06,0,0,0,.23.39.58.58,0,0,0,.42.17c.25,0,.42-.14.49-.51A2.39,2.39,0,0,0,22.52,33a2.75,2.75,0,0,0-1.08-1.41C21,31.35,20.63,31.28,20.4,31.41Zm1.23,4.43a1.12,1.12,0,0,0,.1.48.62.62,0,0,0,.28.31.39.39,0,0,0,.47,0,.65.65,0,0,0,.24-.49.69.69,0,0,0-.4-.71C21.89,35.17,21.65,35.32,21.63,35.84Z" transform="translate(-11.38 -9.91)"/><path class="cls-2" d="M28.48,49.45a2.69,2.69,0,0,1-1.64-.87,3.61,3.61,0,0,1-.7-1.89,9.26,9.26,0,0,1,0-1.09c0-.47.07-1,.13-1.63s.17-1.28.3-2,.28-1.46.46-2.2.35-1.46.54-2.14.37-1.29.55-1.79c.34-1,.66-1.81.95-2.44a7.17,7.17,0,0,1,.88-1.51,2,2,0,0,1,.87-.71,1.76,1.76,0,0,1,1-.05,3.52,3.52,0,0,1,1.42.64,4.56,4.56,0,0,1,1.2,1.58,15.43,15.43,0,0,1,1.08,2.87,44,44,0,0,1,.93,4.41c.1.61.21,1.3.31,2.08s.19,1.51.26,2.21.12,1.31.16,1.84,0,.89,0,1.11c-.08,1-.77,1.7-2.1,1.91a1.8,1.8,0,0,1-1.08-.1,1.35,1.35,0,0,1-.58-.62,3.52,3.52,0,0,1-.31-1c-.07-.41-.17-.88-.28-1.41a19.66,19.66,0,0,1-2.54-.14c-.05.35-.09.72-.13,1.11a3.72,3.72,0,0,1-.23,1,1.55,1.55,0,0,1-.5.71A1.12,1.12,0,0,1,28.48,49.45Zm3.91-7.09c0-.32,0-.72,0-1.21s-.06-1-.11-1.44-.11-.87-.18-1.21S32,38,31.87,38s-.16.13-.26.4a9.19,9.19,0,0,0-.3,1.06c-.09.43-.18.9-.26,1.4a12.32,12.32,0,0,0-.13,1.41C31.5,42.3,31.79,42.32,32.39,42.36Zm.76-8.57c-.12.09-.18.33-.15.7a7.7,7.7,0,0,0,.26,1.43c.37,1.29.76,1.8,1.12,1.58s.36-.82,0-1.84a6,6,0,0,0-.67-1.49C33.5,33.8,33.31,33.67,33.15,33.79Zm1.24,4.59a.88.88,0,0,0,.08.81.31.31,0,0,0,.22.13A.44.44,0,0,0,35,39.2a.54.54,0,0,0,.19-.3.8.8,0,0,0-.16-.75.36.36,0,0,0-.27-.16C34.59,38,34.47,38.12,34.39,38.38Z" transform="translate(-11.38 -9.91)"/><path class="cls-2" d="M38.19,40.78c0-.29,0-.44,0-.74,0-.59,0-.89,0-1.49,0-.31,0-.46,0-.77,0-.72,0-1.43-.06-2.12a11.81,11.81,0,0,1,.14-1.88,3.24,3.24,0,0,1,.48-1.34,1.15,1.15,0,0,1,1-.5c.3,0,.64,0,1-.05l1.3-.1c1.26-.08,2.46-.14,3.52-.14a8.14,8.14,0,0,1,2.73.38,2.63,2.63,0,0,1,1.59,1.33A4,4,0,0,1,49.94,36a7.19,7.19,0,0,1-.48,1.36,11.4,11.4,0,0,1-.86,1.47,15.74,15.74,0,0,1-1.19,1.48,14.11,14.11,0,0,1-1.47,1.41,1.15,1.15,0,0,0,.5.26.82.82,0,0,0,.57-.06c.18-.08.35-.16.5-.21a.52.52,0,0,1,.33,0c.08,0,.09.09,0,.22a2.67,2.67,0,0,1-.4.62,18.87,18.87,0,0,1-3.12,3.18c-.19.14-.36.27-.52.37a.77.77,0,0,1-.4.15c-.09,0-.17-.08-.26-.23a5.74,5.74,0,0,1-.29-.6c-.11-.25-.22-.53-.35-.83s-.24-.6-.36-.85l-.07,0c0,.08,0,.12,0,.2s0,.26-.06.43l-.06.53c0,.19-.05.36-.08.52a3.51,3.51,0,0,1-.08.42c-.08.31-.17.6-.26.86a3.13,3.13,0,0,1-.35.71,2.78,2.78,0,0,1-.55.6,3.67,3.67,0,0,1-.89.53,4,4,0,0,1-.72.23,1.13,1.13,0,0,1-.61,0,.74.74,0,0,1-.4-.38,1.58,1.58,0,0,1-.09-.81A53,53,0,0,0,38.19,40.78Zm4.53-.39a9.92,9.92,0,0,0,1.17-.4,3.1,3.1,0,0,0,.85-.54,2.36,2.36,0,0,0,.54-.74,2.84,2.84,0,0,0,.27-1.07,1.66,1.66,0,0,0-.38-1.3A1.57,1.57,0,0,0,43.69,36l-.47.07a4.24,4.24,0,0,0-.46.1,8.9,8.9,0,0,1,.11,2.14C42.83,38.94,42.78,39.64,42.72,40.39Zm3-7.55a.51.51,0,0,0-.25.25.31.31,0,0,0,0,.32.68.68,0,0,0,.27.26l.49.3a5,5,0,0,1,.55.39,2,2,0,0,1,.44.51.94.94,0,0,1,.11.37,1.82,1.82,0,0,0,.09.37.71.71,0,0,0,.18.26.45.45,0,0,0,.34.06.81.81,0,0,0,.63-.53,1.44,1.44,0,0,0,0-.94,1.67,1.67,0,0,0-.5-.8,3.24,3.24,0,0,0-.8-.59,3,3,0,0,0-.89-.31A1,1,0,0,0,45.69,32.84Zm2,3.79c-.15.3-.12.48.06.53s.25,0,.43-.12a1.1,1.1,0,0,0,.37-.38.37.37,0,0,0,.05-.3.23.23,0,0,0-.18-.16.53.53,0,0,0-.42.06A.64.64,0,0,0,47.69,36.63Zm-.5,5.49a1.4,1.4,0,0,0-.37.29.65.65,0,0,0-.18.28,1.46,1.46,0,0,1-.16.43,3.37,3.37,0,0,1-.25.44c0,.06,0,.09,0,.07a.41.41,0,0,0,.14-.08,3.54,3.54,0,0,0,.72-.8l.11-.17a2.1,2.1,0,0,0,.13-.26.47.47,0,0,0,0-.21S47.3,42.06,47.19,42.12Z" transform="translate(-11.38 -9.91)"/></g></g></svg>