<svg id="Loghi" xmlns="http://www.w3.org/2000/svg" viewBox="0 0 61.93 61.93"><defs><style>.cls-1{fill:#4e782d;}.cls-2{fill:#73b72b;}.cls-3{fill:#1d1d1b;}</style></defs><g id="Logo_Verde" data-name="Logo Verde"><path id="Tappo" class="cls-1" d="M61.55,32c0,1,1.51,2.11,1.41,3.16S61.15,37,61,38s1.07,2.29.77,3.27-2.12,1.39-2.49,2.28.61,2.42.13,3.3-2.33.93-2.86,1.72S56.64,51,56,51.76s-2.45.46-3.12,1.13-.33,2.45-1.1,3.09-2.49,0-3.27.52-.81,2.35-1.69,2.83-2.45-.47-3.34-.1-1.27,2.15-2.24,2.46-2.34-.94-3.31-.74-1.72,1.87-2.76,2S33,61.55,32,61.55,29.86,63,28.81,62.92,27,61.15,26,61s-2.31,1-3.29.74-1.38-2.09-2.26-2.46-2.44.58-3.32.1-.92-2.3-1.7-2.83S13,56.61,12.2,56s-.45-2.42-1.12-3.09S8.62,52.53,8,51.76s0-2.46-.51-3.24-2.36-.84-2.84-1.72.49-2.42.12-3.3-2.17-1.31-2.48-2.28,1-2.31.75-3.27-1.88-1.76-2-2.8S2.42,33,2.42,32,.93,29.83,1,28.78,2.83,27,3,26s-1-2.34-.75-3.32,2.1-1.35,2.48-2.23-.6-2.47-.12-3.35,2.31-.89,2.84-1.67-.12-2.52.51-3.29,2.43-.42,3.1-1.09S11.43,8.59,12.2,8s2.47,0,3.26-.48.82-2.39,1.7-2.87,2.43.52,3.32.15,1.29-2.2,2.26-2.51,2.33,1,3.29.78,1.74-1.91,2.78-2S31,2.42,32,2.42,34.13.9,35.18,1,37,2.83,37.94,3s2.34-1.08,3.31-.78,1.36,2.13,2.24,2.51S46,4.12,46.83,4.6s.9,2.34,1.69,2.87S51,7.32,51.79,8s.43,2.46,1.1,3.13,2.49.32,3.12,1.09,0,2.5.49,3.29,2.38.79,2.86,1.67-.51,2.47-.13,3.35,2.18,1.26,2.49,2.23-1,2.36-.77,3.32,1.9,1.71,2,2.75S61.55,31,61.55,32Z" transform="translate(-1.03 -1)"/><circle id="Background" class="cls-2" cx="30.97" cy="30.97" r="28.33"/><g id="Logo"><g id="Bar"><path class="cls-3" d="M5.5,27.45a6.85,6.85,0,0,1,.25-.92,5.84,5.84,0,0,1,.46-1,4.65,4.65,0,0,1,.65-.88,2.15,2.15,0,0,1,.81-.57c.23-.08.39-.05.46.1a1.65,1.65,0,0,1,.13.54,4.27,4.27,0,0,0,.09.57.22.22,0,0,0,.3.19A.75.75,0,0,0,9,25.28a1.5,1.5,0,0,0,.26-.54c.23-.82.43-1.6.61-2.32s.37-1.43.58-2.15a25,25,0,0,1,2.57-6,16.4,16.4,0,0,1,1.86-2.62,9,9,0,0,1,1.66-1.51c.47-.32.77-.42.91-.32s0,.55-.36,1.36a44.69,44.69,0,0,0-2.18,5.73,42.09,42.09,0,0,0-1.48,6.82,13.26,13.26,0,0,1-.61,2.55,11.35,11.35,0,0,1-1.11,2.38,8.21,8.21,0,0,1-1.51,1.81,3.8,3.8,0,0,1-1.82.92,2.39,2.39,0,0,1-1.34-.11,2.24,2.24,0,0,1-1-.78,3,3,0,0,1-.56-1.3A4.9,4.9,0,0,1,5.5,27.45ZM16.44,11a1.74,1.74,0,0,0-.4.41,5.79,5.79,0,0,0-.38.58c-.12.21-.22.4-.31.6l-.22.47-.2.42c-.09.19-.16.37-.23.54a1.14,1.14,0,0,0-.1.42c0,.11.06.14.16.1a.92.92,0,0,0,.34-.27,3.58,3.58,0,0,0,.29-.43,5.06,5.06,0,0,0,.24-.46l.18-.41c0-.1.11-.27.21-.51l.3-.73a4.41,4.41,0,0,0,.21-.6C16.57,11,16.54,11,16.44,11Zm-1.72,4a1.18,1.18,0,0,0-.47.42,2.65,2.65,0,0,0-.35.62c-.11.29-.06.4.16.32a1,1,0,0,0,.43-.34,1.55,1.55,0,0,0,.32-.55.92.92,0,0,0,.07-.36C14.87,15.06,14.82,15,14.72,15.06Z" transform="translate(-1.03 -1)"/><path class="cls-3" d="M21.55,30a8.41,8.41,0,0,1-3.28-.79,4.82,4.82,0,0,1-1.92-1.79,6.72,6.72,0,0,1-.87-2.69,14.3,14.3,0,0,1,0-3.39q.3-2.41.81-4.68a37.89,37.89,0,0,1,1.27-4.36c.2-.54.4-1,.61-1.5a8,8,0,0,1,.68-1.23,5.32,5.32,0,0,1,.83-1,3.56,3.56,0,0,1,1.06-.7c.6-.26.95-.19,1.06.2a4.28,4.28,0,0,1-.12,2,59.47,59.47,0,0,0-1.45,10.13,4.75,4.75,0,0,0,0,.75,3,3,0,0,0,.18.74,1.65,1.65,0,0,0,.37.58.86.86,0,0,0,.64.22,1.32,1.32,0,0,0,1.23-.75A5.67,5.67,0,0,0,23.31,20a16.43,16.43,0,0,0,.26-2.11c.05-.71.08-1.27.1-1.7s0-1,.08-1.5.05-1,.09-1.47c0-.76.07-1.14.12-1.88.05-.47.1-.93.14-1.39s.1-.9.16-1.34A2.82,2.82,0,0,1,25,7a2.17,2.17,0,0,1,1.16-.7.86.86,0,0,1,1.05.62,6.43,6.43,0,0,1,.42,2,22.22,22.22,0,0,1,.06,2.61c0,.91-.05,1.69-.06,2.31,0,.8,0,1.62,0,2.45s0,1.68,0,2.56c0,1.69,0,3.3-.13,4.75a14.41,14.41,0,0,1-.64,3.73,4,4,0,0,1-1.65,2.26A6,6,0,0,1,21.55,30ZM26.6,7.65a.54.54,0,0,0-.33.37,3.29,3.29,0,0,0-.15.67,6.13,6.13,0,0,0-.05.74c0,.24,0,.44,0,.58s0,.29,0,.52,0,.45,0,.67a1.82,1.82,0,0,0,.09.56c.06.15.15.23.26.22a.38.38,0,0,0,.31-.21,1.51,1.51,0,0,0,.18-.45c0-.18.06-.36.08-.54s0-.35,0-.5V9.65c0-.3,0-.61,0-.92a5.42,5.42,0,0,0-.1-.81Q26.75,7.59,26.6,7.65Zm-.07,5c-.16,0-.3.13-.4.36a1.77,1.77,0,0,0-.18.69c0,.35.11.52.34.52a.5.5,0,0,0,.39-.26,1.18,1.18,0,0,0,.18-.6,1.34,1.34,0,0,0-.08-.48C26.73,12.71,26.65,12.63,26.53,12.64Z" transform="translate(-1.03 -1)"/><path class="cls-3" d="M34.19,5.71c.25,0,.47.3.65.9a7.35,7.35,0,0,1,.27,2.17,6.56,6.56,0,0,1-.35,2.29q-.34.91-.87.87l-.32,0c.06,1.84.08,3.83,0,6s-.11,4.25-.22,6.31c1,.13,1.48,1.31,1.39,3.62a7.63,7.63,0,0,1-.62,3.07c-.36.68-.83,1-1.39.89l-.18,0a1.12,1.12,0,0,1-.24-.1c-.49-.12-.72-.19-1.18-.32a.81.81,0,0,0-.24-.09l-.17,0a2.24,2.24,0,0,1-1.41-1.43,8.34,8.34,0,0,1-.69-3.24,6.12,6.12,0,0,1,.22-2.16q.27-.75.78-.69l.46.06C30,21.86,30,19.9,30,17.86s.07-4,.09-5.87a1.44,1.44,0,0,1-1.32-.63,4.41,4.41,0,0,1-.32-2.17,7.74,7.74,0,0,1,.36-2.38c.2-.57.47-.88.8-.93A25,25,0,0,1,34.19,5.71Zm-.54,19.55a.27.27,0,0,0-.31.19,1.06,1.06,0,0,0,0,.58c.05.28.1.61.13,1a7.93,7.93,0,0,1,0,.89.5.5,0,0,0,.09.33.24.24,0,0,0,.18.12c.2,0,.31-.44.34-1.38,0-.06,0-.19,0-.37A5.32,5.32,0,0,0,34,26a2.64,2.64,0,0,0-.13-.52C33.83,25.36,33.75,25.27,33.65,25.26ZM34,6.53c-.12,0-.22.1-.25.32a2.17,2.17,0,0,0,.06.48,4.64,4.64,0,0,0,.11.5,3.92,3.92,0,0,1,.06.44c0,.16,0,.32,0,.46a1,1,0,0,0,.1.35.26.26,0,0,0,.23.15c.12,0,.2-.07.26-.26a3.7,3.7,0,0,0,.11-.54,3.56,3.56,0,0,0-.16-1.18C34.42,6.84,34.21,6.57,34,6.53Zm.35,3.05c-.07,0-.14,0-.18.14a1,1,0,0,0-.1.34,2,2,0,0,0,0,.41c0,.15.08.22.15.23a.21.21,0,0,0,.23-.09.9.9,0,0,0,.12-.38,1.83,1.83,0,0,0,0-.4A.3.3,0,0,0,34.33,9.58Z" transform="translate(-1.03 -1)"/><path class="cls-3" d="M40.33,33a3.51,3.51,0,0,1-2.71-1.19,7.33,7.33,0,0,1-1.41-3.09A25,25,0,0,1,35.64,24c-.06-1.81-.07-3.81,0-5.95,0-1.88.13-3.59.29-5.13A18.2,18.2,0,0,1,36.67,9a4.94,4.94,0,0,1,1.41-2.31,2.26,2.26,0,0,1,2.27-.27A5.56,5.56,0,0,1,43,8.26a11.23,11.23,0,0,1,1.85,4c.18.67.36,1.44.53,2.34s.27,1.65.33,2.26a2.29,2.29,0,0,1-.46,2,1.93,1.93,0,0,1-1.58.35,1.67,1.67,0,0,1-1-.55A3,3,0,0,1,42,17.16,11.41,11.41,0,0,1,42,15.84c0-.52,0-1-.08-1.49a6,6,0,0,0-.26-1.25.86.86,0,0,0-.58-.63c-.38-.09-.67.11-.86.6a8,8,0,0,0-.43,1.83c-.1.72-.16,1.48-.19,2.26s0,1.42,0,1.87,0,1.07,0,1.8A16.69,16.69,0,0,0,39.62,23a7.66,7.66,0,0,0,.43,1.84,1.21,1.21,0,0,0,1.88.62,1.74,1.74,0,0,0,.42-.71,4.33,4.33,0,0,0,.18-.95,4,4,0,0,1,.21-.94,1.36,1.36,0,0,1,.5-.66A1.51,1.51,0,0,1,44.32,22a1.55,1.55,0,0,1,1.4,1,6.67,6.67,0,0,1,.33,2.37,10,10,0,0,1-.51,3.23A8.08,8.08,0,0,1,44.25,31a5.27,5.27,0,0,1-1.81,1.49A4.46,4.46,0,0,1,40.33,33ZM42.11,8.73S42,8.84,42,9a1,1,0,0,0,.07.44c.1.23.2.51.32.81a8,8,0,0,0,.39.91,3.29,3.29,0,0,1,.21.6c0,.21.1.39.15.56a1.77,1.77,0,0,0,.2.46.52.52,0,0,0,.32.25c.17,0,.28-.16.28-.56A4.71,4.71,0,0,0,43.63,11a7.82,7.82,0,0,0-.86-1.74Q42.31,8.56,42.11,8.73ZM43.73,14a1.85,1.85,0,0,0,.09.58A.87.87,0,0,0,44,15c.13.13.26.14.36,0a.77.77,0,0,0,.14-.55,1.1,1.1,0,0,0-.33-.85C43.87,13.29,43.72,13.42,43.73,14Z" transform="translate(-1.03 -1)"/><path class="cls-3" d="M49.28,32.49c-1,.1-1.58-.18-1.87-.8a6.14,6.14,0,0,1-.34-2.76,59.68,59.68,0,0,0-.72-14.08c-.06-.41-.15-.93-.28-1.57s-.23-1.24-.31-1.82a5.61,5.61,0,0,1,0-1.38c0-.34.24-.45.55-.32a15.07,15.07,0,0,1,1.92,1A12.6,12.6,0,0,1,50,12.06c.12.1.29.28.52.52l.72.77c.25.28.49.54.72.81s.41.46.52.61.31.42.44.63a2.34,2.34,0,0,1,.28.54c.05.15,0,.26,0,.32s-.22.07-.44,0c-1.14-.35-1.73-.51-2.93-.78.29.81.43,1.22.7,2.06l2.41.6a2.42,2.42,0,0,1,1.31.86,5.32,5.32,0,0,1,.85,1.46,6.06,6.06,0,0,1,.22.71,3.09,3.09,0,0,1,.1.78,1.33,1.33,0,0,1-.17.65.58.58,0,0,1-.57.26c-1.28-.07-1.91-.11-3.15-.2.24,1.28.34,1.93.51,3.25l1.66,0a.64.64,0,0,0,.52-.25,3.3,3.3,0,0,0,.33-.52,2.28,2.28,0,0,1,.39-.52.81.81,0,0,1,.62-.22,3.07,3.07,0,0,1,1.75.51,2.32,2.32,0,0,1,1,1.52,8.23,8.23,0,0,1,.2,2.08A2.68,2.68,0,0,1,58,30,3.52,3.52,0,0,1,56.72,31a8.88,8.88,0,0,1-2.23.71c-.53.11-1.07.22-1.62.3s-1.06.16-1.56.23C50.48,32.36,50.07,32.4,49.28,32.49Zm.44-20.39s0,0,0,.06a.57.57,0,0,0,.11.19l.34.43c.09.1.16.2.23.29s.34.45.48.65a1.86,1.86,0,0,0,.58.53c.14.08.19,0,.14-.11a3.47,3.47,0,0,0-.54-.74c-.34-.4-.63-.71-.86-.94A1.28,1.28,0,0,0,49.72,12.1ZM53,18.6s0,0,0,.09a.25.25,0,0,0,0,.17c.07.13.13.23.17.29a3.52,3.52,0,0,0,.2.31,2,2,0,0,1,.32.57.46.46,0,0,0,.35.34.21.21,0,0,0,.26-.19,1.08,1.08,0,0,0-.22-.65,2.81,2.81,0,0,0-.6-.71A.76.76,0,0,0,53,18.6ZM51.7,14.74a1.69,1.69,0,0,0,.17.27,1.74,1.74,0,0,0,.22.24c.09.07.15.08.18,0s0-.11,0-.21a1.91,1.91,0,0,0-.39-.47C51.61,14.42,51.57,14.45,51.7,14.74Z" transform="translate(-1.03 -1)"/></g><g id="Juice"><path class="cls-3" d="M17.35,54.48a19.77,19.77,0,0,1-2.5-2c-.75-.68-1.46-1.38-2.15-2.09S11.31,49,10.64,48.14a20.47,20.47,0,0,1-2-2.8,22.06,22.06,0,0,1-2.3-5.23,23.82,23.82,0,0,1-.76-3,6.25,6.25,0,0,1,0-2.63A3.89,3.89,0,0,1,7,32.36a6.33,6.33,0,0,1,3.27-1.28,21,21,0,0,1,4.55-.2,8.22,8.22,0,0,1,3.58,1A6,6,0,0,1,20.7,34.4a9.29,9.29,0,0,1,.82,4.07,6.53,6.53,0,0,1-.26,1.87,6.88,6.88,0,0,1-.74,1.75,5.8,5.8,0,0,1-1.11,1.32A2.44,2.44,0,0,1,18,44a5.56,5.56,0,0,1,3.25,2,8.05,8.05,0,0,1,1.56,4.34,7.21,7.21,0,0,1-.28,3.21,3.05,3.05,0,0,1-1.25,1.62,2.42,2.42,0,0,1-1.78.22A6.64,6.64,0,0,1,17.35,54.48ZM11.62,40.32a.82.82,0,0,0,.34.07,3.41,3.41,0,0,0,2-.35,1.36,1.36,0,0,0,.71-1.43,1.22,1.22,0,0,0-.61-.85,3.17,3.17,0,0,0-1.69-.39h-.54a1.89,1.89,0,0,0-.7.08,4.46,4.46,0,0,0,.14,1.45c.08.49.17,1,.26,1.43ZM14,48.56a1.39,1.39,0,0,0,.42.64,4.89,4.89,0,0,0,.94.41c1.31.47,1.85.17,1.58-.88a4.1,4.1,0,0,0-1.23-1.85,6.87,6.87,0,0,0-2.89-1.44C13.29,46.72,13.53,47.35,14,48.56Zm2-15.39a.57.57,0,0,0-.26.36.87.87,0,0,0,0,.53,2.86,2.86,0,0,0,.57.79,5,5,0,0,1,.72.89,1.84,1.84,0,0,1,.31.7,4.42,4.42,0,0,0,.22.7,1.61,1.61,0,0,0,.31.53.82.82,0,0,0,.58.24c.35,0,.58-.2.68-.7A3.36,3.36,0,0,0,19,35.38a3.7,3.7,0,0,0-1.49-1.93C16.86,33.08,16.38,33,16.07,33.17Zm1.69,6.08a1.38,1.38,0,0,0,.14.66,1,1,0,0,0,.37.43.55.55,0,0,0,.66,0,.83.83,0,0,0,.32-.67.92.92,0,0,0-.54-1C18.11,38.33,17.79,38.53,17.76,39.25Z" transform="translate(-1.03 -1)"/><path class="cls-3" d="M27.17,58a3.62,3.62,0,0,1-2.25-1.2,4.77,4.77,0,0,1-1-2.6,9,9,0,0,1,0-1.5c0-.64.09-1.38.18-2.23s.22-1.76.4-2.76.39-2,.63-3,.49-2,.75-2.94.51-1.76.76-2.45c.46-1.36.9-2.48,1.3-3.36a10.05,10.05,0,0,1,1.2-2.08,2.87,2.87,0,0,1,1.2-1,2.38,2.38,0,0,1,1.34-.06,4.76,4.76,0,0,1,2,.87,6.53,6.53,0,0,1,1.65,2.17,20.7,20.7,0,0,1,1.47,3.95,55.53,55.53,0,0,1,1.29,6.06c.14.83.28,1.79.42,2.85s.26,2.07.36,3,.17,1.8.21,2.53a12,12,0,0,1,0,1.52c-.1,1.41-1.05,2.34-2.87,2.62a2.46,2.46,0,0,1-1.49-.13,1.86,1.86,0,0,1-.8-.86A4.94,4.94,0,0,1,33.51,56c-.1-.57-.22-1.21-.38-2a25.75,25.75,0,0,1-3.5-.19c-.06.49-.12,1-.17,1.53a5.22,5.22,0,0,1-.31,1.42,2.11,2.11,0,0,1-.68,1A1.58,1.58,0,0,1,27.17,58Zm5.36-9.74a16.08,16.08,0,0,0,0-1.67c0-.68-.08-1.34-.15-2s-.15-1.2-.24-1.67-.19-.73-.29-.74-.23.17-.37.55a11.63,11.63,0,0,0-.4,1.46c-.13.59-.25,1.24-.35,1.92a17.76,17.76,0,0,0-.2,1.94C31.32,48.13,31.71,48.16,32.53,48.21Zm1.06-11.78c-.18.12-.25.45-.22,1a9.69,9.69,0,0,0,.37,2c.5,1.77,1,2.47,1.53,2.17s.49-1.12,0-2.52A8.57,8.57,0,0,0,34.39,37C34.07,36.45,33.8,36.27,33.59,36.43Zm1.7,6.31a1.18,1.18,0,0,0,.11,1.11.38.38,0,0,0,.3.18.6.6,0,0,0,.4-.16.77.77,0,0,0,.26-.42,1.12,1.12,0,0,0-.22-1,.51.51,0,0,0-.37-.23C35.57,42.19,35.4,42.38,35.29,42.74Z" transform="translate(-1.03 -1)"/><path class="cls-3" d="M40.51,46c0-.41,0-.61,0-1,0-.81,0-1.22,0-2.05,0-.42,0-.63,0-1.06-.06-1-.08-2-.09-2.91a15.73,15.73,0,0,1,.19-2.59,4.52,4.52,0,0,1,.66-1.83,1.58,1.58,0,0,1,1.35-.68c.42,0,.9,0,1.44-.08s1.14-.09,1.79-.13c1.73-.11,3.37-.19,4.83-.2a11.17,11.17,0,0,1,3.75.52,3.63,3.63,0,0,1,2.18,1.84,5.57,5.57,0,0,1,.13,3.6A9,9,0,0,1,56,41.32a13.26,13.26,0,0,1-1.17,2,21.41,21.41,0,0,1-1.63,2,20.88,20.88,0,0,1-2,1.94,1.88,1.88,0,0,0,.69.35,1.16,1.16,0,0,0,.79-.08l.68-.29a.82.82,0,0,1,.46-.06c.1,0,.12.13.06.31a4.41,4.41,0,0,1-.55.85A25.79,25.79,0,0,1,49,52.76a6.06,6.06,0,0,1-.7.51,1.12,1.12,0,0,1-.56.21c-.13,0-.24-.11-.36-.32a7.2,7.2,0,0,1-.39-.82q-.22-.51-.48-1.14c-.17-.42-.34-.82-.49-1.17l-.11,0a2.34,2.34,0,0,1,0,.26c0,.16-.05.36-.08.6l-.09.73c0,.25-.07.48-.1.7a5,5,0,0,1-.11.58c-.11.43-.23.83-.36,1.19a4.62,4.62,0,0,1-.48,1,3.9,3.9,0,0,1-.76.83,5,5,0,0,1-1.21.72,5.16,5.16,0,0,1-1,.32,1.5,1.5,0,0,1-.85,0,1,1,0,0,1-.54-.52,2.11,2.11,0,0,1-.13-1.11A72.91,72.91,0,0,0,40.51,46Zm6.23-.55a12,12,0,0,0,1.6-.54,4.05,4.05,0,0,0,1.16-.74,3.29,3.29,0,0,0,.75-1,4.16,4.16,0,0,0,.37-1.48,2.25,2.25,0,0,0-.53-1.78,2.13,2.13,0,0,0-2-.49l-.64.1c-.2,0-.42.08-.63.13a13.28,13.28,0,0,1,.15,3C46.88,43.51,46.82,44.47,46.74,45.49Zm4.07-10.37a.84.84,0,0,0-.35.35.48.48,0,0,0,0,.45,1.21,1.21,0,0,0,.38.36l.67.41a6.28,6.28,0,0,1,.75.52,2.77,2.77,0,0,1,.61.71,1.22,1.22,0,0,1,.16.51,1.59,1.59,0,0,0,.11.5,1,1,0,0,0,.25.36.62.62,0,0,0,.47.08,1.08,1.08,0,0,0,.86-.73,2,2,0,0,0,.07-1.28,2.4,2.4,0,0,0-.68-1.11A4.78,4.78,0,0,0,53,35.44,4,4,0,0,0,51.78,35,1.43,1.43,0,0,0,50.81,35.12Zm2.74,5.21c-.19.42-.16.66.1.74s.34,0,.59-.17a1.61,1.61,0,0,0,.5-.52.53.53,0,0,0,.07-.41.29.29,0,0,0-.25-.22.71.71,0,0,0-.58.08A1,1,0,0,0,53.55,40.33Zm-.67,7.55a2.2,2.2,0,0,0-.52.39.81.81,0,0,0-.24.39,2.4,2.4,0,0,1-.23.6,4.76,4.76,0,0,1-.34.59c-.06.09-.06.13,0,.11l.19-.11a4.73,4.73,0,0,0,1-1.1l.16-.24a4,4,0,0,0,.18-.36.71.71,0,0,0,.06-.29C53.1,47.79,53,47.8,52.88,47.88Z" transform="translate(-1.03 -1)"/></g></g></g></svg>